<svg xmlns="http://www.w3.org/2000/svg" x="0px" y="0px"
width="96" height="96"
viewBox="0 0 210 210"
style=" fill:#000000;"><g fill="none" fill-rule="nonzero" stroke="none" stroke-width="1" stroke-linecap="butt" stroke-linejoin="miter" stroke-miterlimit="10" stroke-dasharray="" stroke-dashoffset="0" font-family="none" font-weight="none" font-size="none" text-anchor="none" style="mix-blend-mode: normal"><path d="M0,210v-210h210v210z" fill="none"></path><g fill="#333333"><path d="M172.93213,26.25c-4.095,0 -7.83535,2.32395 -9.67285,5.98145l-5.75928,11.51855l-55.95215,23.97705c-3.22,1.3825 -5.29785,4.53223 -5.29785,8.03223v58.46436c0,3.5 2.07785,6.67557 5.29785,8.04932l55.95215,23.97705l5.75928,11.51855c1.8375,3.6575 5.57785,5.98145 9.67285,5.98145c5.97625,0 10.81787,-4.84162 10.81787,-10.81787v-52.80761c5.40496,-3.12054 8.73896,-8.88342 8.75,-15.12452c-0.00494,-6.2472 -3.33976,-12.018 -8.75,-15.1416v-52.79053c0,-5.97625 -4.84162,-10.81787 -10.81787,-10.81787zM43.75,70c-9.625,0 -17.5,7.875 -17.5,17.5v35c0,9.625 7.875,17.5 17.5,17.5h17.5v35c0,4.83 3.92,8.75 8.75,8.75c4.83,0 8.75,-3.92 8.75,-8.75v-52.5v-43.75c0,-4.83 -3.92,-8.75 -8.75,-8.75z"></path></g></g></svg>